<svg width="100%" height="100%" fill="white" viewBox="0 0 479 78" version="1.1" xmlns="http://www.w3.org/2000/svg" xmlns:xlink="http://www.w3.org/1999/xlink" xml:space="preserve" xmlns:serif="http://www.serif.com/" style="fill-rule:evenodd;clip-rule:evenodd;stroke-linejoin:round;stroke-miterlimit:1.41421;">
   <path d="M40.5,33.486l-25.892,-32.959l-14.608,0l0,75.621l16.242,0l0,-50.203l24.258,30.744l24.311,-30.955l0,50.414l16.189,0l0,-75.621l-14.344,0l-26.156,32.959Z" style="fill-rule:nonzero;"/>
   <path d="M112.324,23.203l-14.607,0l0,52.945l14.607,0l0,-52.945Zm1.055,-15.109c0,-2.443 -0.773,-4.403 -2.32,-5.88c-1.547,-1.476 -3.657,-2.214 -6.328,-2.214c-2.426,0 -4.377,0.738 -5.854,2.214c-1.476,1.477 -2.215,3.437 -2.215,5.88c0,2.444 0.73,4.404 2.189,5.88c1.459,1.477 3.419,2.215 5.88,2.215c2.672,0 4.781,-0.738 6.328,-2.215c1.547,-1.476 2.32,-3.436 2.32,-5.88Z" style="fill-rule:nonzero;"/>
   <path d="M149.027,22.148c-6.855,0 -12.805,2.663 -17.85,7.989c-5.045,5.326 -7.568,11.839 -7.568,19.538c0,7.7 2.523,14.212 7.568,19.538c5.045,5.327 10.995,7.99 17.85,7.99c1.934,0 3.797,-0.264 5.59,-0.791c1.793,-0.528 3.252,-1.134 4.377,-1.82c1.125,-0.685 2.171,-1.459 3.138,-2.32c0.967,-0.861 1.6,-1.459 1.898,-1.793c0.299,-0.334 0.519,-0.606 0.66,-0.817l0,6.486l14.554,0l0,-75.621l-14.554,0l0,29.162l-1.635,-1.951c-1.09,-1.195 -2.945,-2.426 -5.564,-3.692c-2.619,-1.265 -5.44,-1.898 -8.464,-1.898Zm2.69,42.135c-3.586,0 -6.645,-1.371 -9.176,-4.113c-2.531,-2.743 -3.797,-6.241 -3.797,-10.495c0,-4.254 1.266,-7.743 3.797,-10.467c2.531,-2.725 5.59,-4.087 9.176,-4.087c3.586,0 6.644,1.362 9.176,4.087c2.531,2.724 3.797,6.213 3.797,10.467c0,4.254 -1.266,7.752 -3.797,10.495c-2.532,2.742 -5.59,4.113 -9.176,4.113Z" style="fill-rule:nonzero;"/>
   <path d="M215.947,22.148c-6.855,0 -12.805,2.663 -17.85,7.989c-5.045,5.326 -7.568,11.839 -7.568,19.538c0,7.7 2.523,14.212 7.568,19.538c5.045,5.327 10.995,7.99 17.85,7.99c1.934,0 3.797,-0.264 5.59,-0.791c1.793,-0.528 3.252,-1.134 4.377,-1.82c1.125,-0.685 2.171,-1.459 3.138,-2.32c0.967,-0.861 1.599,-1.459 1.898,-1.793c0.299,-0.334 0.519,-0.606 0.659,-0.817l0,6.486l14.555,0l0,-75.621l-14.555,0l0,29.162l-1.634,-1.951c-1.09,-1.195 -2.945,-2.426 -5.564,-3.692c-2.619,-1.265 -5.44,-1.898 -8.464,-1.898Zm2.69,42.135c-3.586,0 -6.645,-1.371 -9.176,-4.113c-2.531,-2.743 -3.797,-6.241 -3.797,-10.495c0,-4.254 1.266,-7.743 3.797,-10.467c2.531,-2.725 5.59,-4.087 9.176,-4.087c3.586,0 6.644,1.362 9.176,4.087c2.531,2.724 3.796,6.213 3.796,10.467c0,4.254 -1.265,7.752 -3.796,10.495c-2.532,2.742 -5.59,4.113 -9.176,4.113Z" style="fill-rule:nonzero;"/>
   <path d="M306.681,9.907l21.621,66.973l5.379,0l24.311,-75.621l-5.959,0l-21.041,66.973l-21.621,-66.973l-5.379,0l-21.621,66.973l-21.041,-66.973l-5.959,0l24.31,75.621l5.432,0l21.568,-66.973Z" style="fill-rule:nonzero;"/>
   <path d="M414.681,53.097l0,-2.162c0,-7.91 -2.302,-14.388 -6.908,-19.433c-4.605,-5.045 -10.222,-7.567 -16.848,-7.567c-6.627,0 -12.428,2.645 -17.403,7.936c-4.974,5.291 -7.462,11.646 -7.462,19.064c0,7.488 2.514,13.86 7.541,19.116c5.028,5.256 10.969,7.884 17.824,7.884c2.532,0 4.984,-0.396 7.357,-1.187c2.373,-0.791 4.28,-1.652 5.722,-2.584c1.441,-0.931 2.812,-2.004 4.113,-3.217c1.301,-1.213 2.136,-2.074 2.505,-2.584c0.369,-0.509 0.659,-0.905 0.87,-1.186l-3.27,-3.164l-0.632,1.002c-0.528,0.562 -1.275,1.292 -2.242,2.188c-0.966,0.897 -2.1,1.802 -3.401,2.716c-1.301,0.914 -2.944,1.67 -4.931,2.268c-1.986,0.597 -4.016,0.896 -6.091,0.896c-5.378,0 -10.072,-1.977 -14.08,-5.933c-4.007,-3.955 -6.152,-8.639 -6.433,-14.053l43.769,0Zm-23.783,-24.258c5.168,0 9.545,1.828 13.131,5.484c3.586,3.657 5.519,8.297 5.801,13.922l-38.918,0c0.316,-5.168 2.452,-9.694 6.407,-13.579c3.955,-3.885 8.481,-5.827 13.579,-5.827Z" style="fill-rule:nonzero;"/>
   <path d="M434.615,50.961c0,-6.135 2.013,-11.355 6.038,-15.662c4.025,-4.307 8.675,-6.46 13.948,-6.46c4.957,0 9.44,2.171 13.448,6.513c4.007,4.341 6.011,9.545 6.011,15.609c0,6.065 -2.004,11.268 -6.011,15.609c-4.008,4.342 -8.491,6.513 -13.448,6.513c-5.238,0 -9.879,-2.153 -13.922,-6.46c-4.043,-4.306 -6.064,-9.527 -6.064,-15.662Zm0,-49.702l-4.852,0l0,75.621l4.852,0l0,-10.283l0.791,1.213c0.492,0.773 1.292,1.722 2.399,2.847c1.108,1.125 2.4,2.224 3.876,3.296c1.477,1.072 3.367,2.004 5.669,2.795c2.303,0.791 4.72,1.187 7.251,1.187c6.328,0 11.962,-2.646 16.902,-7.937c4.939,-5.291 7.409,-11.637 7.409,-19.037c0,-7.4 -2.47,-13.755 -7.409,-19.063c-4.94,-5.309 -10.574,-7.963 -16.902,-7.963c-2.531,0 -4.948,0.422 -7.251,1.265c-2.302,0.844 -4.175,1.749 -5.616,2.716c-1.441,0.967 -2.768,2.118 -3.981,3.454c-1.213,1.336 -2.004,2.259 -2.373,2.769c-0.37,0.51 -0.624,0.905 -0.765,1.186l0,-34.066Z" style="fill-rule:nonzero;"/>
</svg>